STARTFONT 2.1
FONT -FontForge-Weather Icons-Book-R-Normal--48-460-75-75-P-526-ISO10646-1
SIZE 46 75 75
FONTBOUNDINGBOX 67 67 0 -15
COMMENT "Generated by fontforge, http://fontforge.sourceforge.net"
COMMENT "Weather Icons licensed under SIL OFL 1.1 - Code licensed under MIT License - Documentation licensed under CC BY 3.0"
STARTPROPERTIES 35
FOUNDRY "FontForge"
FAMILY_NAME "Weather Icons"
WEIGHT_NAME "Book"
SLANT "R"
SETWIDTH_NAME "Normal"
ADD_STYLE_NAME ""
PIXEL_SIZE 48
POINT_SIZE 460
RESOLUTION_X 75
RESOLUTION_Y 75
SPACING "P"
AVERAGE_WIDTH 526
CHARSET_REGISTRY "ISO10646"
CHARSET_ENCODING "1"
FONTNAME_REGISTRY ""
CHARSET_COLLECTIONS "Symbol ISO10646-1"
FONT_NAME "WeatherIcons-Regular"
FACE_NAME "Weather Icons Regular"
COPYRIGHT "Weather Icons licensed under SIL OFL 1.1 - Code licensed under MIT License - Documentation licensed under CC BY 3.0"
FONT_VERSION "1.100;PS 001.100;hotconv 1.0.70;makeotf.lib2.5.58329"
FONT_ASCENT 41
FONT_DESCENT 7
UNDERLINE_POSITION -3
UNDERLINE_THICKNESS 2
RAW_ASCENT 856
RAW_DESCENT 143
RELATIVE_WEIGHT 40
RELATIVE_SETWIDTH 50
SUPERSCRIPT_X 0
SUPERSCRIPT_Y 16
SUPERSCRIPT_SIZE 28
SUBSCRIPT_X 0
SUBSCRIPT_Y 3
SUBSCRIPT_SIZE 28
FIGURE_WIDTH -1
ENDPROPERTIES
CHARS 13
STARTCHAR uniF002
ENCODING 61442
SWIDTH 1399 0
DWIDTH 67 0
BBX 67 52 0 0
BITMAP
000000000180000000
0000000003C0000000
0000000003C0000000
0000000003C0000000
0000000003C0000000
0000000003C0000000
0000000003C0000000
0000038003C000E000
000007C0018001F000
000007E0000003F000
000003E0000007E000
000001E000000FC000
0000008000001F8000
000000000FE00F0000
000000003FFC020000
000000007FFE000000
00000FF9FFFF800000
00003FFFF81FC00000
0000FFFFF007C00000
0001FFFFC003E00000
0007F81FE001F00000
0007E007E000F00000
000FC001F000F00000
001F8000F800F80000
001F0000F800780000
003E00007800781FC0
003E00003C00783FE0
007C00003C00783FE0
00FC00003FE0781FC0
03F800003FF8780000
07F800003FFEF80000
1FF800001FFFF00000
1F800000003FF00000
3E000000000FE00000
7C0000000007E00000
780000000003C00000
F80000000003E00000
F00000000001E00000
F00000000001E00000
F00000000001E00000
F00000000001E18000
F00000000001E3C000
F00000000001E3E000
780000000003C3F000
780000000003C1F000
7C0000000007C0E000
3E000000000F800000
1F800000003F000000
0FFFFFFFFFFE000000
07FFFFFFFFFC000000
03FFFFFFFFF8000000
007FFFFFFFC0000000
ENDCHAR
STARTCHAR uniF00D
ENCODING 61453
SWIDTH 1106 0
DWIDTH 53 0
BBX 53 53 0 -9
BITMAP
00000060000000
000000F0000000
000000F0000000
000000F0000000
000000F0000000
000000F0000000
000000F0000000
00E000F0003800
01F00060007C00
01F8000000FC00
00FC000001F800
007E000003F000
003E000003E000
001E01FC03C000
00000FFF000000
00001FFFC00000
00003FFFE00000
00007E07F00000
0000FC01F80000
0000F000F80000
0001F0007C0000
0001E0003C0000
0003E0003C0000
0003C0001E0000
7F03C0001E07F0
FF83C0001E0FF8
FF83C0001E0FF8
7F03C0001E07F0
0003C0001E0000
0003E0003E0000
0001E0003C0000
0001F0007C0000
0000F000F80000
0000FC01F80000
00007E07F00000
00003FFFE00000
00001FFFC00000
00000FFF000000
001E01FC03C000
003E000003E000
007E000003F000
00FE000001F800
01FC000000FC00
01F80000007C00
01F00060007C00
00E000F0003800
000000F0000000
000000F0000000
000000F0000000
000000F0000000
000000F0000000
000000F0000000
00000060000000
ENDCHAR
STARTCHAR uniF013
ENCODING 61459
SWIDTH 1157 0
DWIDTH 56 0
BBX 56 37 0 0
BITMAP
00000001FC0000
00000007FF0000
0000000FFF8000
0000001FFFE000
0000003F07E000
0000001C01F000
00007F8000F800
0001FFE0007800
0007FFF8007C00
000FFFFC003C00
001FC0FE003FC0
003F003F003FF0
003C001F003FF8
0078000F801FFC
0078000780007E
00F00003F8001E
03F00003FF001F
0FF00003FF800F
1FF00003FFC00F
3F00000007E00F
7E00000003F00F
7C00000001F01E
7800000000F03E
F000000000787E
F00000000079FC
F00000000079F8
F00000000079F0
F00000000079C0
F0000000007800
7800000000F000
7C00000001F000
7E00000003F000
3F00000007E000
1FFFFFFFFFC000
0FFFFFFFFF8000
07FFFFFFFF0000
00FFFFFFF80000
ENDCHAR
STARTCHAR uniF014
ENCODING 61460
SWIDTH 1289 0
DWIDTH 62 0
BBX 62 44 0 -8
BITMAP
0000001FE0000000
0000007FFC000000
000001FFFF000000
000003FFFF800000
000007F01FC00000
00000FC007E00000
00001F8003F00000
00003F0001F00000
00003E0000F80000
00007C0000780000
00007C00007C0000
0000F800003FC000
0003F800003FF800
000FF800003FFC00
001FF800003FFE00
003F800000007F00
003E000000001F80
007C000000000FC0
00F80000000007C0
00F80000000003C0
0000000000000000
0000000000000000
0000000000000000
0000000000000000
01FFFFFFFFFFFF80
01FFFFFFFFFFFF80
01FFFFFFFFFFFF80
01FFFFFFFFFFFF80
0000000000000000
0000000000000000
0000000000000000
0000000000000000
7FFFFFFFFFFFC000
FFFFFFFFFFFFE000
FFFFFFFFFFFFE000
7FFFFFFFFFFFC000
0000000000000000
0000000000000000
0000000000000000
0000000000000000
000FFFFFFFFFFFF8
001FFFFFFFFFFFFC
001FFFFFFFFFFFFC
000FFFFFFFFFFFF8
ENDCHAR
STARTCHAR uniF015
ENCODING 61461
SWIDTH 1079 0
DWIDTH 52 0
BBX 52 51 0 -15
BITMAP
00000FF0000000
00003FFE000000
0000FFFF000000
0001FFFFC00000
0003F81FE00000
0007E007F00000
000FC001F00000
001F8000F80000
001F0000780000
003F00007C0000
003E00003C0000
003E00003E0000
007C00003FE000
03FC00001FFC00
07FC00001FFE00
0FFC00001FFF00
1FC00000003F80
3F000000000FC0
7C0000000003E0
780000000003E0
F80000000001E0
F00000000000F0
F00000000000F0
F00000000000F0
F00018181800F0
F0003C3C3C00F0
F0003C3C3C00F0
78003C3C3C01E0
7C007C783C03E0
7C0078787C03E0
3F007878780FC0
1FC07878783F80
0FF8F8F0F9FF00
07F8F0F0F9FE00
03F8F0F0F1FC00
0078F0F0F1E000
000061E0000000
000001E0000000
000001E0000000
0003C1E1C00000
0003C3E3C00000
0003C3C3C00000
000183C1C00000
000003C0000000
00000000000000
00000000000000
00000200000000
00000F00000000
00000F00000000
00000F00000000
00000200000000
ENDCHAR
STARTCHAR uniF019
ENCODING 61465
SWIDTH 1079 0
DWIDTH 52 0
BBX 52 50 0 -14
BITMAP
00000FF0000000
00003FFE000000
0000FFFF000000
0001FFFFC00000
0003F81FE00000
0007E007F00000
000F8001F00000
001F0000F80000
001F00007C0000
003E00007C0000
003C00003C0000
007C00003E0000
00FC00001FE000
03FC00001FFC00
07F800001FFE00
1FF800001FFF00
1F800000003F80
3F000000000FC0
7C0000000003E0
780000000001E0
F80000000001E0
F00000000000F0
F00000000000F0
F00000000000F0
F00018181C00F0
F0003C3C3E00F0
F0007C3C3E00F0
F800787C3C01E0
7800787C3C01E0
7C00F8787C03E0
3E00F8787807C0
1F80F0F8781F80
0FF0F0F0F8FF00
07F1F0F0F8FE00
03F1E0F0F0FC00
00F1E1F0F0F000
0003E1E1F00000
0003E1E1E00000
0003C3E1E00000
0003C3E3E00000
0007C3C3E00000
000383C1C00000
000107C0800000
00000780000000
00000780000000
00000F80000000
00000F80000000
00000F00000000
00000F00000000
00000E00000000
ENDCHAR
STARTCHAR uniF01B
ENCODING 61467
SWIDTH 1079 0
DWIDTH 52 0
BBX 52 50 0 -14
BITMAP
00000FF0000000
00003FFE000000
0000FFFF000000
0001FFFFC00000
0003F81FE00000
0007E007E00000
000FC001F00000
001F8000F80000
001F0000F80000
003E00007C0000
003E00003C0000
003C00003C0000
007C00003FE000
03FC00001FF800
07FC00001FFE00
0FF800001FFF00
1FC00000003F80
3F000000000FC0
7C0000000003E0
780000000003E0
780000000001E0
F00000000000F0
F00000000000F0
F00000000000F0
F00000000000F0
F00000000000F0
F00000000000F0
F80000000001F0
780000600001E0
7C0000F00003E0
3E0000F00007C0
1F800060001F80
1FF0600060FF80
07F0F000F0FE00
03F0F000F0FC00
00F0600060F000
00000060000000
000000F0000000
000000F0000000
00000060000000
00000000000000
00006000600000
0000F000F00000
0000F000F00000
00006000600000
00000000000000
00000060000000
000000F0000000
000000F0000000
00000060000000
ENDCHAR
STARTCHAR uniF01E
ENCODING 61470
SWIDTH 1080 0
DWIDTH 52 0
BBX 52 51 0 -15
BITMAP
00000FF0000000
00003FFE000000
0000FFFF000000
0001FFFFC00000
0003F81FE00000
0007E007F00000
000FC001F00000
001F8000F80000
001F00007C0000
003E00007C0000
003E00003C0000
003C00003E0000
007C00001FE000
03FC00001FFC00
07F800001FFE00
0FF800001FFF00
1F800000001F80
3F000000000FC0
7C0000000003E0
780000000001E0
F80000000001E0
F00000000000F0
F00000000000F0
F00000000000F0
F007F8180800F0
F007F83C3E00F0
F00FF03C3E00F0
F80FF03C3C01E0
780FE07C3C01E0
7C1FE0787C03E0
3E1FC0787C0FC0
1FBFC078781F80
0FFF80F878FF00
07FF80F0F8FE00
03FF00F0F8FC00
007E01F0F0E000
00FFF9F0F00000
00FFF1E1F00000
00FFF1E1E00000
01FFE3E1E00000
0007C3E1E00000
0007C3C1E00000
000F83C0000000
000F07C0000000
000F07C0000000
000E0780000000
001C0780000000
00180F80000000
00180F00000000
00100700000000
00200000000000
ENDCHAR
STARTCHAR uniF02E
ENCODING 61486
SWIDTH 738 0
DWIDTH 35 0
BBX 35 35 0 1
BITMAP
000FF80000
003FF80000
00FFF80000
01FFF80000
07FE3C0000
0FF03C0000
0FE03C0000
1FC03E0000
3F801E0000
3F001F0000
7E000F8000
7E000FC000
7C0007E000
FC0003F800
F80001FFE0
F80000FFE0
F800003FE0
F800000FE0
F8000001E0
F8000000E0
F8000001E0
FC000001E0
7C000001E0
7C000003C0
3E000003C0
3F00000780
1F00000F80
1F80001F00
0FE0003E00
07F000FE00
03FE03FC00
01FFFFF000
007FFFE000
001FFF8000
0003FC0000
ENDCHAR
STARTCHAR uniF031
ENCODING 61489
SWIDTH 1114 0
DWIDTH 53 0
BBX 53 39 0 0
BITMAP
000000000FF000
000000003FFC00
00000000FFFE00
00000FF1FFFF80
00007FFFF81FC0
0000FFFFE007C0
0003FFFFC003E0
0007F81FE001F0
000FC007E000F0
000F8003F000F0
001F0001F800F8
003E0000F80078
003E0000780078
003C00007C0078
007C00003C0078
00F800003FE078
03F800003FF878
0FF800003FFEF8
1FF800003FFFF0
1F800000003FF0
3E000000000FE0
7C0000000007E0
780000000003C0
F80000000003E0
F00000000001E0
F00000000001E0
F00000000001E0
F00000000001E0
F00000000001E0
F00000000001E0
F80000000003C0
780000000003C0
7C0000000007C0
3E000000000F80
1F800000003F00
0FFFFFFFFFFE00
07FFFFFFFFFC00
03FFFFFFFFF800
007FFFFFFFC000
ENDCHAR
STARTCHAR uniF050
ENCODING 61520
SWIDTH 1239 0
DWIDTH 60 0
BBX 60 32 0 0
BITMAP
0000000000003E00
0000000000007F80
000000000000FFC0
000000000000FFE0
000000000000E3F0
00000000000041F0
00000000000001F0
00000000000001F0
00000000000001F0
00000000000003F0
7FFFFFFFFFFFFFE0
FFFFFFFFFFFFFFC0
FFFFFFFFFFFFFF80
7FFFFFFFFFFFFF00
0000000000000000
0000000000000000
0000000000000000
7FFFFFFFFFC00000
7FFFFFFFFFF00000
FFFFFFFFFFF80000
7FFFFFFFFFFC0000
7FFFFFFFFFFC0000
00000000007E0000
00000000003E0000
00000000003E0000
00000000003E0000
00000000183E0000
000000003C7E0000
000000003FFC0000
000000003FF80000
000000001FF00000
0000000007C00000
ENDCHAR
STARTCHAR uniF056
ENCODING 61526
SWIDTH 724 0
DWIDTH 35 0
BBX 35 36 0 0
BITMAP
000FFF8000
00FFFFF800
03FFFFFF00
07F8007F80
0F800007C0
1E000001E0
1C000000E0
1E000001E0
0F800007C0
3FF0007F80
3FFFFFFE00
787FFFF800
7007FFB800
7800007800
3E0001F000
3FC00FF000
3FFFFFC000
7FFFFF0000
F07FFC0000
F0001C0000
FE00FC0000
7FFFF80000
1FFFF00000
03FF800000
3800000000
7803000000
780F000000
7FFF000000
3FFE000000
07F8000000
0000000000
0C06000000
1E0E000000
1FFE000000
0FFE000000
03F8000000
ENDCHAR
STARTCHAR uniF0B5
ENCODING 61621
SWIDTH 1136 0
DWIDTH 55 0
BBX 52 51 0 -15
BITMAP
00000FF8000000
00007FFE000000
0000FFFF800000
0003FFFFC00000
0007FC1FE00000
0007E007F00000
000FC001F80000
001F8000F80000
001F00007C0000
003E00003C0000
003C00003E0000
003C00003F8000
01FC00001FF800
07FC00001FFE00
0FFC00001FFF00
1FF800001FFF80
3F800000001FC0
3E0000000007C0
7C0000000003E0
780000000001E0
F80000000001F0
F80000000001F0
F00000000000F0
F00000000000F0
F00000000000F0
F80000000000F0
F80000000001F0
780000000001F0
7C0000000003E0
7E0000000007E0
3F000000000FC0
1FC00000003F80
0FF060F060FF80
07F0F0F0F0FE00
03F0F0F0F0FC00
00F0E1F0F0F000
000001E0000000
000000E0000000
0001C001C00000
0003C003E00000
0003C383E00000
0003C3C3C00000
0003C3C3C00000
00018381C00000
00000000000000
00000000000000
00000700000000
00000F00000000
00000F00000000
00000F00000000
00000F00000000
ENDCHAR
ENDFONT
