STARTFONT 2.1
FONT -FontForge-Weather Icons-Book-R-Normal--96-920-75-75-P-1051-ISO10646-1
SIZE 92 75 75
FONTBOUNDINGBOX 134 136 0 -31
COMMENT "Generated by fontforge, http://fontforge.sourceforge.net"
COMMENT "Weather Icons licensed under SIL OFL 1.1 - Code licensed under MIT License - Documentation licensed under CC BY 3.0"
STARTPROPERTIES 35
FOUNDRY "FontForge"
FAMILY_NAME "Weather Icons"
WEIGHT_NAME "Book"
SLANT "R"
SETWIDTH_NAME "Normal"
ADD_STYLE_NAME ""
PIXEL_SIZE 96
POINT_SIZE 920
RESOLUTION_X 75
RESOLUTION_Y 75
SPACING "P"
AVERAGE_WIDTH 1051
CHARSET_REGISTRY "ISO10646"
CHARSET_ENCODING "1"
FONTNAME_REGISTRY ""
CHARSET_COLLECTIONS "Symbol ISO10646-1"
FONT_NAME "WeatherIcons-Regular"
FACE_NAME "Weather Icons Regular"
COPYRIGHT "Weather Icons licensed under SIL OFL 1.1 - Code licensed under MIT License - Documentation licensed under CC BY 3.0"
FONT_VERSION "1.100;PS 001.100;hotconv 1.0.70;makeotf.lib2.5.58329"
FONT_ASCENT 82
FONT_DESCENT 14
UNDERLINE_POSITION -5
UNDERLINE_THICKNESS 3
RAW_ASCENT 856
RAW_DESCENT 143
RELATIVE_WEIGHT 40
RELATIVE_SETWIDTH 50
SUPERSCRIPT_X 0
SUPERSCRIPT_Y 33
SUPERSCRIPT_SIZE 57
SUBSCRIPT_X 0
SUBSCRIPT_Y 7
SUBSCRIPT_SIZE 57
FIGURE_WIDTH -1
ENDPROPERTIES
CHARS 13
STARTCHAR uniF002
ENCODING 61442
SWIDTH 1399 0
DWIDTH 134 0
BBX 134 105 0 0
BITMAP
00000000000000000001E0000000000000
00000000000000000003F0000000000000
00000000000000000007F8000000000000
00000000000000000007F8000000000000
00000000000000000007F8000000000000
00000000000000000007F8000000000000
00000000000000000007F8000000000000
00000000000000000007F8000000000000
00000000000000000007F8000000000000
00000000000000000007F8000000000000
00000000000000000007F8000000000000
00000000000000000007F8000000000000
00000000000000000007F8000000000000
00000000000000000007F8000000000000
00000000000000000007F8000000000000
00000000000F80000007F80000007C0000
00000000001FC0000007F8000000FE0000
00000000003FE0000003F0000001FF0000
00000000003FF0000001E0000003FF0000
00000000003FF800000000000007FF0000
00000000003FFC0000000000000FFF0000
00000000001FFC0000000000001FFE0000
00000000001FFC0000000000003FFC0000
00000000000FFC0000000000007FF80000
000000000007FC000000000000FFF00000
000000000003F8000000000000FFE00000
000000000000F0000000000000FFC00000
00000000000000000000000000FF800000
0000000000000000000FFC0000FF000000
000000000000000000FFFFC0007E000000
000000000000000003FFFFF00018000000
00000000000000000FFFFFFC0000000000
00000000000000003FFFFFFF0000000000
00000000001FFC007FFFFFFF8000000000
0000000001FFFFC0FFFFFFFFC000000000
000000000FFFFFF1FFFFFFFFE000000000
000000003FFFFFFFFFF807FFF000000000
00000000FFFFFFFFFFC000FFF800000000
00000001FFFFFFFFFF00003FFC00000000
00000003FFFFFFFFFC00000FFE00000000
00000007FFFFFFFFF8000007FE00000000
0000000FFFF007FFFC000003FF00000000
0000001FFF8000FFFE000001FF00000000
0000003FFE00003FFE000000FF80000000
0000007FF800000FFF000000FF80000000
000000FFF0000007FF8000007FC0000000
000001FFE0000003FF8000007FC0000000
000001FFC0000000FFC000003FC0000000
000003FF80000000FFE000003FC0000000
000003FF000000007FE000003FE0000000
000007FE000000003FF000001FE003FFF0
000007FC000000001FF000001FE007FFF8
00000FFC000000001FF000001FE00FFFFC
00000FF8000000000FF800001FE00FFFFC
00000FF8000000000FF800001FE00FFFFC
00000FF0000000000FF800001FE00FFFFC
00001FF00000000007FFF0001FE007FFF8
0000FFF00000000007FFFE003FE003FFF0
0003FFF00000000007FFFFC03FE0000000
000FFFE00000000007FFFFE03FC0000000
003FFFE00000000003FFFFF87FC0000000
007FFFE00000000003FFFFFC7FC0000000
00FFFFE00000000003FFFFFEFFC0000000
01FFFFE00000000003FFFFFFFF80000000
03FFF8000000000000001FFFFF80000000
07FFC00000000000000007FFFF00000000
0FFF000000000000000001FFFF00000000
0FFE000000000000000000FFFE00000000
1FFC0000000000000000007FFE00000000
3FF80000000000000000003FFC00000000
3FF00000000000000000001FF800000000
3FF00000000000000000000FFC00000000
7FE00000000000000000000FFC00000000
7FC000000000000000000007FC00000000
7FC000000000000000000007FC00000000
FFC000000000000000000007FE00000000
FF8000000000000000000003FE00000000
FF8000000000000000000003FE00000000
FF8000000000000000000003FE00000000
FF8000000000000000000003FE00000000
FF8000000000000000000003FE00000000
FF8000000000000000000003FE01C00000
FF8000000000000000000003FE07F00000
FF8000000000000000000003FE0FF80000
FFC000000000000000000003FE0FFC0000
FFC000000000000000000007FC0FFE0000
7FC000000000000000000007FC0FFE0000
7FE00000000000000000000FFC0FFF0000
7FE00000000000000000000FFC07FF0000
3FF00000000000000000001FF803FF0000
3FF00000000000000000001FF801FF0000
1FF80000000000000000003FF000FE0000
1FFC0000000000000000007FF0007C0000
0FFE000000000000000000FFE000000000
0FFF800000000000000003FFE000000000
07FFC00000000000000007FFC000000000
03FFF8000000000000003FFF8000000000
01FFFFFFFFFFFFFFFFFFFFFF0000000000
00FFFFFFFFFFFFFFFFFFFFFE0000000000
007FFFFFFFFFFFFFFFFFFFFC0000000000
003FFFFFFFFFFFFFFFFFFFF80000000000
000FFFFFFFFFFFFFFFFFFFE00000000000
0003FFFFFFFFFFFFFFFFFF800000000000
0000FFFFFFFFFFFFFFFFFE000000000000
00000FFFFFFFFFFFFFFFF0000000000000
ENDCHAR
STARTCHAR uniF00D
ENCODING 61453
SWIDTH 1106 0
DWIDTH 106 0
BBX 107 107 0 -17
BITMAP
0000000000001F00000000000000
0000000000003F80000000000000
0000000000007FC0000000000000
0000000000007FC0000000000000
0000000000007FC0000000000000
0000000000007FC0000000000000
0000000000007FC0000000000000
0000000000007FC0000000000000
0000000000007FC0000000000000
0000000000007FC0000000000000
0000000000007FC0000000000000
0000000000007FC0000000000000
0000000000007FC0000000000000
0000000000007FC0000000000000
0000000000007FC0000000000000
0000FC0000007FC0000007C00000
0001FE0000007FC000000FC00000
0001FE0000003F8000001FE00000
0001FF0000001F0000003FE00000
0001FF800000000000007FE00000
0001FFC0000000000000FFE00000
0001FFE0000000000001FFC00000
0000FFF0000000000003FF800000
00007FF8000000000007FF000000
00003FFC00000000000FFE000000
00001FFC00000000000FFC000000
00000FFC00000000000FF8000000
000003F80000FFC0000FF0000000
000001F80007FFFC0007E0000000
000000F0003FFFFF0003C0000000
0000000000FFFFFFC00000000000
0000000001FFFFFFF00000000000
0000000007FFFFFFF80000000000
000000000FFFFFFFFC0000000000
000000001FFFFFFFFE0000000000
000000003FFFFFFFFF0000000000
000000007FFF803FFF8000000000
00000000FFFC0007FFC000000000
00000000FFF00001FFC000000000
00000001FFC00000FFE000000000
00000003FF8000007FF000000000
00000003FF0000003FF000000000
00000007FE0000001FF800000000
00000007FC0000000FF800000000
00000007FC0000000FF800000000
0000000FF800000007FC00000000
0000000FF000000003FC00000000
0000000FF000000003FC00000000
0000001FF000000003FE00000000
3FFF801FE000000001FE003FFF80
7FFFC01FE000000001FE007FFFC0
FFFFE01FE000000001FE00FFFFC0
FFFFE01FE000000001FE00FFFFE0
FFFFE01FE000000001FE00FFFFE0
FFFFE01FE000000001FE00FFFFE0
FFFFE01FE000000001FE00FFFFE0
7FFFC01FE000000001FE007FFFC0
3FFF801FE000000001FE003FFF80
0000001FF000000003FE00000000
0000000FF000000003FC00000000
0000000FF000000003FC00000000
0000000FF800000007FC00000000
00000007F800000007FC00000000
00000007FC0000000FF800000000
00000007FE0000000FF800000000
00000003FE0000001FF000000000
00000003FF0000003FF000000000
00000001FF8000007FE000000000
00000000FFE00000FFE000000000
00000000FFF00003FFC000000000
000000007FFC0007FF8000000000
000000003FFF803FFF0000000000
000000001FFFFFFFFE0000000000
000000000FFFFFFFFC0000000000
0000000007FFFFFFF80000000000
0000000001FFFFFFF00000000000
0000000000FFFFFFC00000000000
00000040003FFFFF800080000000
000001F8000FFFFC0007E0000000
000003F80000FFE0000FF0000000
000007FC00000000000FF8000000
00000FFC00000000000FFC000000
00001FFC00000000000FFE000000
00003FF8000000000007FF000000
00007FF0000000000007FF800000
0000FFE0000000000003FFC00000
0001FFC0000000000001FFE00000
0001FF80000000000000FFE00000
0001FF0000001F0000007FE00000
0001FE0000003F8000003FE00000
0001FC0000007FC000001FC00000
0000F80000007FC000000F800000
0000000000007FC0000000000000
0000000000007FC0000000000000
0000000000007FC0000000000000
0000000000007FC0000000000000
0000000000007FC0000000000000
0000000000007FC0000000000000
0000000000007FC0000000000000
0000000000007FC0000000000000
0000000000007FC0000000000000
0000000000007FC0000000000000
0000000000007FC0000000000000
0000000000007FC0000000000000
0000000000007FC0000000000000
0000000000003F80000000000000
0000000000001F00000000000000
ENDCHAR
STARTCHAR uniF013
ENCODING 61459
SWIDTH 1157 0
DWIDTH 111 0
BBX 111 73 0 0
BITMAP
0000000000000000FFC000000000
000000000000000FFFF800000000
000000000000003FFFFE00000000
00000000000000FFFFFF80000000
00000000000001FFFFFFE0000000
00000000000003FFFFFFF0000000
00000000000007FFFFFFF8000000
0000000000000FFF807FFC000000
0000000000001FFE000FFE000000
00000000000007F80003FF000000
00000000000001F00001FF000000
000000000FFE00600000FF800000
000000007FFFC00000007FC00000
00000003FFFFF80000003FC00000
0000000FFFFFFC0000001FC00000
0000001FFFFFFF0000001FE00000
0000003FFFFFFF8000000FE00000
000000FFFFFFFFC000000FFF0000
000001FFF803FFF000000FFFE000
000003FFC0007FF000000FFFF800
000003FF00001FF800000FFFFE00
000007FE00000FFC000007FFFF00
00000FF8000003FE000007FFFF80
00001FF0000001FE000007FFFFC0
00001FE0000001FF00000001FFE0
00003FE0000000FF800000003FF0
00003FC00000007F800000001FF0
00007F800000003F800000000FF8
00007F800000003FC000000007F8
00007F000000003FC000000003FC
00007F000000001FC000000003FC
0000FF000000001FFF80000001FC
0007FF000000001FFFF0000001FE
001FFE000000000FFFFC000000FE
007FFE000000000FFFFF000000FE
00FFFE000000000FFFFF800000FE
01FFFE000000000FFFFFC00000FE
03FFFE000000000FFFFFE00000FE
07FF80000000000000FFF00000FE
0FFC000000000000003FF80000FE
1FF8000000000000000FFC0001FE
1FE00000000000000007FC0001FC
3FC00000000000000003FE0003FC
3FC00000000000000001FE0003FC
7F800000000000000000FF0007F8
7F0000000000000000007F001FF8
7F0000000000000000007F003FF0
FF0000000000000000007F80FFE0
FE0000000000000000003F8FFFE0
FE0000000000000000003F8FFFC0
FE0000000000000000003F8FFF80
FE0000000000000000003F8FFE00
FE0000000000000000003F8FFC00
FE0000000000000000003F8FF000
FE0000000000000000003F8F8000
FF0000000000000000007F800000
7F0000000000000000007F000000
7F0000000000000000007F000000
7F800000000000000000FF000000
3F800000000000000001FF000000
3FC00000000000000001FE000000
3FE00000000000000003FE000000
1FF00000000000000007FC000000
0FF8000000000000000FF8000000
0FFE000000000000003FF8000000
07FF80000000000000FFF0000000
03FFFFFFFFFFFFFFFFFFE0000000
01FFFFFFFFFFFFFFFFFFC0000000
00FFFFFFFFFFFFFFFFFF80000000
003FFFFFFFFFFFFFFFFE00000000
001FFFFFFFFFFFFFFFFC00000000
0007FFFFFFFFFFFFFFF000000000
00007FFFFFFFFFFFFF8000000000
ENDCHAR
STARTCHAR uniF014
ENCODING 61460
SWIDTH 1289 0
DWIDTH 124 0
BBX 124 89 0 -16
BITMAP
00000000000000FFE000000000000000
00000000000007FFFE00000000000000
0000000000003FFFFFC0000000000000
000000000000FFFFFFF0000000000000
000000000001FFFFFFF8000000000000
000000000007FFFFFFFE000000000000
00000000000FFFFFFFFF000000000000
00000000001FFFFFFFFF800000000000
00000000003FFFFFFFFFC00000000000
00000000007FFFC03FFFE00000000000
0000000000FFFC0003FFF00000000000
0000000001FFF00000FFF80000000000
0000000003FFE000003FFC0000000000
0000000007FF8000001FFC0000000000
0000000007FF0000000FFE0000000000
000000000FFE00000007FE0000000000
000000000FFC00000003FF0000000000
000000001FF800000001FF0000000000
000000001FF800000001FF8000000000
000000003FF000000000FF8000000000
000000003FE0000000007FC000000000
000000003FE0000000007FC000000000
000000007FC0000000003FC000000000
000000007FC0000000003FE000000000
000000007FC0000000003FFF80000000
00000003FF80000000003FFFF8000000
0000000FFF80000000001FFFFE000000
0000003FFF80000000001FFFFF800000
000000FFFF80000000001FFFFFE00000
000001FFFF80000000001FFFFFF00000
000003FFFF80000000001FFFFFF80000
000007FFFF00000000001FFFFFFC0000
00000FFFE000000000000000FFFE0000
00001FFF00000000000000001FFF0000
00003FFC000000000000000007FF8000
00003FF8000000000000000003FF8000
00007FF0000000000000000001FFC000
00007FE0000000000000000000FFC000
0000FFC00000000000000000007FE000
0000FF800000000000000000003FE000
0001FF800000000000000000003FF000
0001FF000000000000000000001FF000
0003FE000000000000000000000FE000
00000000000000000000000000000000
00000000000000000000000000000000
00000000000000000000000000000000
00000000000000000000000000000000
00000000000000000000000000000000
00000000000000000000000000000000
00000000000000000000000000000000
0001FFFFFFFFFFFFFFFFFFFFFFFF8000
0003FFFFFFFFFFFFFFFFFFFFFFFFC000
0007FFFFFFFFFFFFFFFFFFFFFFFFE000
0007FFFFFFFFFFFFFFFFFFFFFFFFE000
0007FFFFFFFFFFFFFFFFFFFFFFFFE000
0007FFFFFFFFFFFFFFFFFFFFFFFFE000
0003FFFFFFFFFFFFFFFFFFFFFFFFC000
0001FFFFFFFFFFFFFFFFFFFFFFFF8000
00000000000000000000000000000000
00000000000000000000000000000000
00000000000000000000000000000000
00000000000000000000000000000000
00000000000000000000000000000000
00000000000000000000000000000000
00000000000000000000000000000000
3FFFFFFFFFFFFFFFFFFFFFFFF0000000
7FFFFFFFFFFFFFFFFFFFFFFFF8000000
FFFFFFFFFFFFFFFFFFFFFFFFFC000000
FFFFFFFFFFFFFFFFFFFFFFFFFC000000
FFFFFFFFFFFFFFFFFFFFFFFFFC000000
FFFFFFFFFFFFFFFFFFFFFFFFFC000000
7FFFFFFFFFFFFFFFFFFFFFFFF8000000
3FFFFFFFFFFFFFFFFFFFFFFFF0000000
00000000000000000000000000000000
00000000000000000000000000000000
00000000000000000000000000000000
00000000000000000000000000000000
00000000000000000000000000000000
00000000000000000000000000000000
00000000000000000000000000000000
00000000000000000000000000000000
000000FFFFFFFFFFFFFFFFFFFFFFFFC0
000001FFFFFFFFFFFFFFFFFFFFFFFFE0
000003FFFFFFFFFFFFFFFFFFFFFFFFF0
000003FFFFFFFFFFFFFFFFFFFFFFFFF0
000003FFFFFFFFFFFFFFFFFFFFFFFFF0
000003FFFFFFFFFFFFFFFFFFFFFFFFE0
000001FFFFFFFFFFFFFFFFFFFFFFFFE0
000000FFFFFFFFFFFFFFFFFFFFFFFFC0
ENDCHAR
STARTCHAR uniF015
ENCODING 61461
SWIDTH 1079 0
DWIDTH 104 0
BBX 103 101 0 -29
BITMAP
00000000001FFC000000000000
0000000001FFFFC00000000000
000000000FFFFFF80000000000
000000003FFFFFFE0000000000
000000007FFFFFFF0000000000
00000001FFFFFFFFC000000000
00000003FFFFFFFFE000000000
00000007FFFFFFFFF000000000
0000001FFFF007FFF800000000
0000003FFF8000FFFC00000000
0000003FFC00001FFE00000000
0000007FF800000FFF00000000
000000FFE0000003FF80000000
000001FFC0000001FF80000000
000001FF80000000FFC0000000
000003FF000000007FE0000000
000003FE000000003FE0000000
000007FE000000003FE0000000
000007FC000000001FF0000000
00000FF8000000001FF0000000
00000FF8000000000FF8000000
00000FF0000000000FF8000000
00001FF00000000007F8000000
00001FF00000000007FFF00000
0000FFE00000000007FFFE0000
0007FFE00000000007FFFFC000
000FFFE00000000003FFFFE000
003FFFE00000000003FFFFF800
007FFFE00000000003FFFFFC00
00FFFFE00000000003FFFFFE00
01FFFFC00000000003FFFFFF00
03FFF8000000000000001FFF80
07FFC00000000000000003FFC0
0FFF000000000000000001FFE0
0FFE0000000000000000007FE0
1FFC0000000000000000003FF0
3FF80000000000000000001FF8
3FF00000000000000000000FF8
3FF00000000000000000000FF8
7FE000000000000000000007FC
7FC000000000000000000007FC
7FC000000000000000000003FC
FFC000000000000000000003FE
FF8000000000000000000001FE
FF8000000000000000000001FE
FF8000000000000000000001FE
FF8000000000000000000001FE
FF8000000000000000000001FE
FF8000000F8003E001E00001FE
FF8000001FC007F007F00001FE
FF8000003FC007F007F80001FE
FF8000003FE00FF807F80003FE
FFC000003FE00FF80FF80003FC
7FC000003FC00FF80FF80003FC
7FC000007FC00FF00FF80007FC
7FE000007FC01FF00FF00007FC
3FF000007FC01FF01FF0000FF8
3FF00000FF801FE01FF0000FF8
1FF80000FF801FE01FE0001FF0
1FFC0000FF803FE03FE0003FF0
0FFE0000FF803FE03FE0007FE0
0FFF0001FF003FC03FE001FFE0
07FFC001FF007FC03FC003FFC0
03FFF801FF007FC07FC01FFF80
01FFFF81FF007FC07FC1FFFF00
00FFFF83FE007F807FC1FFFE00
007FFF83FE00FF807F81FFFC00
003FFF83FE00FF80FF81FFF800
000FFF83FC00FF00FF81FFF000
0003FF83FC00FF007F81FFC000
0000FF83FC01FF007F01FF0000
00000F81F801FF003F01F00000
00000000F801FE001E00000000
000000000001FE000000000000
000000000003FE000000000000
000000000003FE000000000000
000000000003FC000000000000
000000000003FC000000000000
0000000FC007FC01F000000000
0000001FE007F803F800000000
0000001FE007F807F800000000
0000001FE00FF807F800000000
0000001FE00FF807F800000000
0000001FE00FF007F800000000
0000000FC00FF003F000000000
00000007800FF001E000000000
000000000007E0000000000000
000000000003C0000000000000
00000000000000000000000000
00000000000000000000000000
00000000000000000000000000
00000000000000000000000000
00000000000000000000000000
00000000003E00000000000000
00000000007F00000000000000
0000000000FF00000000000000
0000000000FF00000000000000
0000000000FF00000000000000
0000000000FF00000000000000
00000000007F00000000000000
00000000003E00000000000000
ENDCHAR
STARTCHAR uniF019
ENCODING 61465
SWIDTH 1079 0
DWIDTH 104 0
BBX 103 100 0 -28
BITMAP
00000000001FFC000000000000
0000000001FFFFC00000000000
000000000FFFFFF00000000000
000000003FFFFFFC0000000000
000000007FFFFFFF0000000000
00000001FFFFFFFF8000000000
00000003FFFFFFFFE000000000
00000007FFFFFFFFF000000000
0000000FFFF007FFF800000000
0000001FFF8000FFFC00000000
0000003FFC00003FFE00000000
0000007FF800000FFF00000000
000000FFF0000007FF00000000
000000FFC0000003FF80000000
000001FF80000001FFC0000000
000003FF00000000FFC0000000
000003FF000000007FE0000000
000007FE000000003FE0000000
000007FC000000003FF0000000
000007FC000000001FF0000000
00000FF8000000000FF0000000
00000FF8000000000FF8000000
00000FF8000000000FF8000000
00001FF00000000007FFF00000
0000FFF00000000007FFFE0000
0003FFF00000000007FFFFC000
000FFFF00000000007FFFFE000
003FFFF00000000007FFFFF800
007FFFE00000000003FFFFFC00
00FFFFE00000000003FFFFFE00
01FFFFE00000000003FFFFFF00
03FFF8000000000000001FFF80
07FFC00000000000000007FFC0
0FFF800000000000000001FFE0
0FFE0000000000000000007FE0
1FFC0000000000000000003FF0
1FF80000000000000000001FF0
3FF00000000000000000000FF8
3FF00000000000000000000FF8
7FE000000000000000000007FC
7FC000000000000000000007FC
7FC000000000000000000003FC
FFC000000000000000000003FE
FF8000000000000000000001FE
FF8000000000000000000001FE
FF8000000000000000000001FE
FF8000000000000000000001FE
FF8000000000000000000001FE
FF800000078003C001E00001FE
FF8000000FE007E003F00001FE
FF8000001FE00FF007F80001FE
FF8000001FE00FF007F80003FE
FFC000001FE00FF00FF80003FC
7FC000003FE01FF00FF80003FC
7FC000003FE01FF00FF80007FC
7FE000003FE01FF00FF00007FC
3FE000003FC01FE01FF0000FF8
3FF000007FC03FE01FF0000FF8
1FF800007FC03FE01FE0001FF0
1FFC00007F803FC03FE0003FF0
0FFE0000FF807FC03FE0007FE0
0FFF0000FF807FC03FE001FFE0
07FFC000FF807FC03FC003FFC0
03FFF000FF007F807FC01FFF80
01FFFF01FF00FF807FC1FFFF00
00FFFF01FF00FF807F81FFFE00
007FFF01FF00FF00FF81FFFC00
003FFF03FE01FF00FF81FFF800
000FFF03FE01FF00FF81FFF000
0007FF03FE01FF00FF01FFC000
0000FF03FC01FE01FF01FE0000
00001F07FC03FE01FF01F00000
00000007FC03FE01FE00000000
00000007FC03FE03FE00000000
0000000FF803FC03FE00000000
0000000FF807FC03FE00000000
0000000FF807FC03FC00000000
0000000FF007F807FC00000000
0000001FF00FF807FC00000000
0000001FF00FF807F800000000
0000001FF00FF807F800000000
0000001FE00FF007F800000000
0000001FE01FF007F800000000
0000000FC01FF003F000000000
00000007801FF001E000000000
00000000003FE0000000000000
00000000003FE0000000000000
00000000003FE0000000000000
00000000003FC0000000000000
00000000007FC0000000000000
00000000007FC0000000000000
00000000007FC0000000000000
00000000007F80000000000000
0000000000FF80000000000000
0000000000FF80000000000000
0000000000FF00000000000000
0000000000FF00000000000000
0000000000FF00000000000000
00000000007E00000000000000
00000000003C00000000000000
ENDCHAR
STARTCHAR uniF01B
ENCODING 61467
SWIDTH 1079 0
DWIDTH 104 0
BBX 103 100 0 -28
BITMAP
00000000001FFC000000000000
0000000001FFFFC00000000000
000000000FFFFFF00000000000
000000003FFFFFFC0000000000
000000007FFFFFFF0000000000
00000001FFFFFFFF8000000000
00000003FFFFFFFFE000000000
00000007FFFFFFFFF000000000
0000000FFFF007FFF800000000
0000001FFF8000FFFC00000000
0000003FFE00003FFE00000000
0000007FF800000FFF00000000
000000FFF0000007FF00000000
000000FFC0000003FF80000000
000001FF80000001FFC0000000
000003FF00000000FFC0000000
000003FF000000007FE0000000
000007FE000000003FE0000000
000007FC000000003FF0000000
000007FC000000001FF0000000
00000FF8000000001FF0000000
00000FF8000000000FF8000000
00000FF0000000000FF8000000
00001FF00000000007FFF00000
0000FFF00000000007FFFE0000
0003FFF00000000007FFFF8000
000FFFF00000000007FFFFE000
003FFFE00000000007FFFFF800
007FFFE00000000007FFFFFC00
00FFFFE00000000003FFFFFE00
01FFFFE00000000003FFFFFF00
03FFFC000000000000003FFF80
07FFC00000000000000007FFC0
07FF800000000000000001FFC0
0FFE000000000000000000FFE0
1FFC0000000000000000003FF0
1FF80000000000000000001FF0
3FF00000000000000000001FF8
3FF00000000000000000000FF8
7FE000000000000000000007FC
7FE000000000000000000007FC
7FC000000000000000000003FC
7FC000000000000000000003FC
FFC000000000000000000003FE
FF8000000000000000000001FE
FF8000000000000000000001FE
FF8000000000000000000001FE
FF8000000000000000000001FE
FF8000000000000000000001FE
FF8000000000000000000001FE
FF8000000000000000000001FE
FF8000000000000000000001FE
FFC000000000000000000003FE
7FC000000000000000000003FC
7FC000000000000000000003FC
7FE000000000000000000007FC
7FE0000000003C0000000007FC
3FF0000000007E000000000FF8
3FF800000000FF000000001FF8
1FFC00000000FF000000003FF0
1FFE00000000FF000000007FF0
0FFF00000000FF00000000FFE0
07FFC00000007E00000003FFC0
03FFF00000003C0000001FFF80
01FFFF003C0000003C01FFFF00
00FFFF007E0000007E01FFFF00
007FFF00FF000000FF01FFFC00
003FFF00FF000000FF01FFF800
001FFF00FF000000FF01FFF000
0007FF00FF000000FF01FFC000
0001FF007E0000007E01FF0000
00001F003C0000003C01F00000
00000000000000000000000000
0000000000003C000000000000
0000000000007E000000000000
000000000000FF000000000000
000000000000FF000000000000
000000000000FF000000000000
000000000000FF000000000000
000000000000FF000000000000
0000000000007E000000000000
0000000000003C000000000000
000000003C0000003C00000000
000000007E0000007E00000000
00000000FF000000FF00000000
00000000FF000000FF00000000
00000000FF000000FF00000000
00000000FF000000FF00000000
000000007E0000007E00000000
000000003C0000003C00000000
00000000000000000000000000
00000000000000000000000000
0000000000003C000000000000
0000000000007E000000000000
000000000000FF000000000000
000000000000FF000000000000
000000000000FF000000000000
000000000000FF000000000000
0000000000007E000000000000
0000000000003C000000000000
ENDCHAR
STARTCHAR uniF01E
ENCODING 61470
SWIDTH 1080 0
DWIDTH 104 0
BBX 103 102 0 -30
BITMAP
00000000001FFC000000000000
0000000001FFFFC00000000000
000000000FFFFFF80000000000
000000003FFFFFFE0000000000
00000000FFFFFFFF0000000000
00000001FFFFFFFFC000000000
00000003FFFFFFFFE000000000
00000007FFFFFFFFF000000000
0000001FFFF007FFF800000000
0000003FFF8000FFFC00000000
0000003FFC00003FFE00000000
0000007FF800000FFF00000000
000000FFE0000007FF80000000
000001FFC0000001FFC0000000
000001FF80000000FFC0000000
000003FF000000007FE0000000
000003FE000000007FE0000000
000007FE000000003FF0000000
000007FC000000001FF0000000
00000FFC000000001FF0000000
00000FF8000000000FF8000000
00000FF8000000000FF8000000
00001FF00000000007FFF00000
00007FF00000000007FFFE0000
0003FFF00000000007FFFF8000
000FFFF00000000007FFFFE000
001FFFF00000000007FFFFF800
007FFFE00000000003FFFFFC00
00FFFFE00000000003FFFFFE00
01FFFFE00000000003FFFFFF00
03FFFFE00000000003FFFFFF80
07FFF8000000000000001FFFC0
07FFC00000000000000003FFE0
0FFF800000000000000001FFE0
1FFE0000000000000000007FF0
1FFC0000000000000000003FF0
3FF80000000000000000001FF8
3FF00000000000000000000FF8
7FE00000000000000000000FFC
7FE000000000000000000007FC
7FC000000000000000000003FC
7FC000000000000000000003FC
FFC000000000000000000003FE
FF8000000000000000000001FE
FF8000000000000000000001FE
FF8000000000000000000001FE
FF8000000000000000000001FE
FF8000000000000000000001FE
FF80001FFFE003E003F00001FE
FF80003FFFE007F007F00001FE
FF80003FFFC00FF007F80001FE
FFC0007FFFC00FF007F80003FE
7FC0007FFF800FF007F80003FC
7FC0007FFF801FF00FF80003FC
7FE000FFFF001FF00FF80007FC
7FF000FFFE001FF00FF0000FFC
3FF000FFFE001FE00FF0000FF8
3FF801FFFC003FE01FF0001FF8
1FFC01FFFC003FE01FF0003FF0
1FFE03FFF8003FE01FE0007FF0
0FFF03FFF8003FC01FE001FFE0
07FFC3FFF0007FC03FE003FFE0
07FFFFFFF0007FC03FE01FFFC0
03FFFFFFE0007FC03FC1FFFF80
01FFFFFFE0007F807FC1FFFF00
00FFFFFFC000FF807FC1FFFE00
007FFFFFC000FF807FC1FFFC00
001FFFFF8000FF807F81FFF800
000FFFFF8000FF00FF81FFE000
0003FFFF0001FF00FF81FFC000
00007FFF0001FF00FF81FE0000
00003FFE0001FF00FF01F00000
00003FFFFFC1FE01FF00000000
00007FFFFFC3FE01FF00000000
00007FFFFF83FE01FF00000000
0000FFFFFF83FE01FE00000000
0000FFFFFF03FC03FE00000000
0000FFFFFE07FC03FE00000000
0001FFFFFE07FC03FE00000000
0001FFFFFC07F803FC00000000
0000003FF80FF807FC00000000
0000003FF80FF803FC00000000
0000003FF00FF803F800000000
0000003FE00FF001F800000000
0000007FE01FF000F000000000
0000007FC01FF0000000000000
0000007F801FF0000000000000
0000007F801FE0000000000000
000000FF003FE0000000000000
000000FE003FE0000000000000
000000FE003FE0000000000000
000000FC003FC0000000000000
000001F8007FC0000000000000
000001F0007FC0000000000000
000001F0007FC0000000000000
000001E0007F80000000000000
000001C0007F80000000000000
000003C0007F80000000000000
00000380003F00000000000000
00000300001E00000000000000
00000300000000000000000000
00000600000000000000000000
ENDCHAR
STARTCHAR uniF02E
ENCODING 61486
SWIDTH 738 0
DWIDTH 71 0
BBX 71 71 0 1
BITMAP
00000003FFC0000000
0000003FFFC0000000
000001FFFFC0000000
00000FFFFFC0000000
00003FFFFFE0000000
00007FFFFFE0000000
0001FFFFFFE0000000
0003FFFFFFE0000000
0007FFFE3FE0000000
001FFFE03FE0000000
003FFF801FE0000000
007FFE001FE0000000
00FFF8001FF0000000
00FFF0001FF0000000
01FFE0000FF0000000
03FF80000FF8000000
03FF80000FF8000000
07FF000007FC000000
0FFE000007FE000000
0FFC000003FE000000
1FF8000003FF000000
1FF8000001FF800000
3FF0000001FFC00000
3FF0000000FFE00000
3FE00000007FF00000
7FE00000003FFC0000
7FC00000001FFE0000
7FC00000000FFFC000
7FC000000007FFF800
FFC000000003FFFFFC
FF8000000001FFFFFE
FF8000000000FFFFFE
FF80000000003FFFFE
FF80000000000FFFFE
FF800000000003FFFE
FF800000000000FFFE
FF8000000000001FFE
FF80000000000003FE
FF80000000000003FE
FF80000000000003FE
FF80000000000003FC
FFC0000000000007FC
7FC0000000000007FC
7FC0000000000007FC
7FE000000000000FFC
7FE000000000000FF8
3FE000000000000FF8
3FF000000000001FF8
3FF000000000003FF0
1FF800000000003FF0
1FFC00000000007FF0
0FFC0000000000FFE0
0FFE0000000001FFE0
07FF0000000001FFC0
07FF8000000003FF80
03FFC00000000FFF80
01FFF00000001FFF00
01FFF80000003FFE00
00FFFE000000FFFC00
007FFF800003FFFC00
003FFFE0000FFFF800
001FFFFC00FFFFF000
000FFFFFFFFFFFC000
0007FFFFFFFFFF8000
0001FFFFFFFFFF0000
0000FFFFFFFFFC0000
00003FFFFFFFF80000
00000FFFFFFFE00000
000003FFFFFF800000
0000007FFFFC000000
00000007FF80000000
ENDCHAR
STARTCHAR uniF031
ENCODING 61489
SWIDTH 1114 0
DWIDTH 107 0
BBX 107 78 0 0
BITMAP
0000000000000000001FF8000000
000000000000000000FFFF800000
000000000000000003FFFFF00000
00000000000000000FFFFFFC0000
00000000000000003FFFFFFE0000
00000000000000007FFFFFFF8000
00000000003FFC00FFFFFFFFC000
0000000001FFFF81FFFFFFFFE000
000000000FFFFFF3FFFFFFFFF000
000000003FFFFFFFFFF007FFF800
00000000FFFFFFFFFF8000FFFC00
00000001FFFFFFFFFE00003FFC00
00000003FFFFFFFFFC00001FFE00
0000000FFFFFFFFFF0000007FE00
0000001FFFF00FFFF8000003FF00
0000003FFF0000FFFC000001FF80
0000003FFC00003FFE000000FF80
0000007FF800001FFE000000FF80
000000FFE0000007FF0000007FC0
000001FFC0000003FF8000007FC0
000001FF80000001FF8000003FC0
000003FF00000000FFC000003FC0
000003FE000000007FC000003FE0
000007FE000000007FE000001FE0
000007FC000000003FE000001FE0
00000FF8000000001FF000001FE0
00000FF8000000001FF000001FE0
00000FF8000000001FF000001FE0
00000FF0000000000FF000001FE0
00001FF0000000000FFFE0001FE0
0000FFF0000000000FFFFE003FE0
0007FFE00000000007FFFF803FE0
000FFFE00000000007FFFFE03FC0
003FFFE00000000007FFFFF87FC0
007FFFE00000000007FFFFFC7FC0
00FFFFE00000000007FFFFFEFFC0
01FFFFE00000000007FFFFFFFF80
03FFF8000000000000003FFFFF80
07FFC00000000000000007FFFF00
0FFF000000000000000003FFFF00
0FFE000000000000000000FFFE00
1FFC0000000000000000007FFE00
3FF80000000000000000003FFC00
3FF00000000000000000001FF800
3FE00000000000000000001FFC00
7FE00000000000000000000FFC00
7FC000000000000000000007FC00
7FC000000000000000000007FC00
FFC000000000000000000007FE00
FF8000000000000000000003FE00
FF8000000000000000000003FE00
FF8000000000000000000003FE00
FF8000000000000000000003FE00
FF8000000000000000000003FE00
FF8000000000000000000003FE00
FF8000000000000000000003FE00
FF8000000000000000000003FE00
FF8000000000000000000003FE00
7FC000000000000000000007FC00
7FC000000000000000000007FC00
7FE00000000000000000000FFC00
7FE00000000000000000000FFC00
3FF00000000000000000001FF800
3FF00000000000000000001FF800
1FF80000000000000000003FF000
1FFC0000000000000000007FF000
0FFE000000000000000000FFE000
0FFF800000000000000003FFE000
07FFC00000000000000007FFC000
03FFF8000000000000003FFF8000
01FFFFFFFFFFFFFFFFFFFFFF0000
00FFFFFFFFFFFFFFFFFFFFFE0000
007FFFFFFFFFFFFFFFFFFFFC0000
003FFFFFFFFFFFFFFFFFFFF80000
000FFFFFFFFFFFFFFFFFFFE00000
0003FFFFFFFFFFFFFFFFFF800000
0000FFFFFFFFFFFFFFFFFE000000
00000FFFFFFFFFFFFFFFF0000000
ENDCHAR
STARTCHAR uniF050
ENCODING 61520
SWIDTH 1239 0
DWIDTH 119 0
BBX 119 64 0 1
BITMAP
00000000000000000000000007F800
0000000000000000000000003FFE00
0000000000000000000000007FFF80
000000000000000000000001FFFFC0
000000000000000000000003FFFFE0
000000000000000000000003FFFFF0
000000000000000000000003FFFFF8
000000000000000000000007FFFFF8
000000000000000000000003FFFFFC
000000000000000000000003FE1FFC
000000000000000000000001F80FFC
000000000000000000000000F007FE
0000000000000000000000000003FE
0000000000000000000000000003FE
0000000000000000000000000003FE
0000000000000000000000000003FE
0000000000000000000000000003FE
0000000000000000000000000007FE
000000000000000000000000000FFC
000000000000000000000000001FFC
1FFFFFFFFFFFFFFFFFFFFFFFFFFFFC
7FFFFFFFFFFFFFFFFFFFFFFFFFFFF8
FFFFFFFFFFFFFFFFFFFFFFFFFFFFF8
FFFFFFFFFFFFFFFFFFFFFFFFFFFFF0
FFFFFFFFFFFFFFFFFFFFFFFFFFFFE0
FFFFFFFFFFFFFFFFFFFFFFFFFFFFC0
7FFFFFFFFFFFFFFFFFFFFFFFFFFF80
7FFFFFFFFFFFFFFFFFFFFFFFFFFE00
3FFFFFFFFFFFFFFFFFFFFFFFFFF800
000000000000000000000000000000
000000000000000000000000000000
000000000000000000000000000000
000000000000000000000000000000
000000000000000000000000000000
000000000000000000000000000000
000000000000000000000000000000
3FFFFFFFFFFFFFFFFFFFC000000000
7FFFFFFFFFFFFFFFFFFFF000000000
FFFFFFFFFFFFFFFFFFFFFC00000000
FFFFFFFFFFFFFFFFFFFFFE00000000
FFFFFFFFFFFFFFFFFFFFFF00000000
FFFFFFFFFFFFFFFFFFFFFF80000000
FFFFFFFFFFFFFFFFFFFFFFC0000000
7FFFFFFFFFFFFFFFFFFFFFC0000000
3FFFFFFFFFFFFFFFFFFFFFE0000000
00000000000000000000FFE0000000
000000000000000000003FF0000000
000000000000000000003FF0000000
000000000000000000001FF0000000
000000000000000000001FF0000000
000000000000000000001FF0000000
000000000000000000001FF0000000
000000000000000003003FF0000000
00000000000000000FC03FF0000000
00000000000000001FF0FFE0000000
00000000000000001FFFFFE0000000
00000000000000001FFFFFC0000000
00000000000000001FFFFFC0000000
00000000000000001FFFFF80000000
00000000000000000FFFFF00000000
000000000000000007FFFE00000000
000000000000000003FFFC00000000
000000000000000000FFF000000000
0000000000000000003FC000000000
ENDCHAR
STARTCHAR uniF056
ENCODING 61526
SWIDTH 724 0
DWIDTH 70 0
BBX 70 73 0 0
BITMAP
0000000FFFFE000000
000003FFFFFFF80000
00003FFFFFFFFF8000
0001FFFFFFFFFFF000
0007FFFFFFFFFFFC00
001FFFFFFFFFFFFF00
003FFFF80003FFFF80
00FFFE0000000FFFE0
01FFF000000000FFF0
03FF80000000003FF0
03FE000000000007F8
07F8000000000003FC
07F0000000000001FC
07E0000000000000FC
07E0000000000000FC
07F0000000000001FC
07F8000000000003FC
03FC00000000000FF8
01FF80000000003FF8
07FFE000000001FFF0
0FFFFE0000000FFFE0
1FFFFFF80003FFFFC0
3FFFFFFFFFFFFFFF00
3FE7FFFFFFFFFFFC00
7F81FFFFFFFFFFF000
7F003FFFFFFFFFE000
7E0003FFFFFFFFE000
7E00000FFFFC07E000
7F00000000000FE000
3FC0000000003FC000
3FF800000001FFC000
1FFF0000000FFF8000
0FFFF80001FFFF0000
1FFFFFFFFFFFFE0000
3FFFFFFFFFFFF80000
7FFFFFFFFFFFE00000
7FEFFFFFFFFF000000
FF81FFFFFFF8000000
FE0003FFFFF8000000
FC00000001F8000000
FF00000007F8000000
FFE000001FF8000000
7FFF0003FFF0000000
3FFFFFFFFFE0000000
1FFFFFFFFFC0000000
07FFFFFFFF80000000
01FFFFFFFE00000000
003FFFFFF000000000
0701FFFE0000000000
0F8000000000000000
1FC0000E0000000000
3FC0001F0000000000
3FC0001F0000000000
3F80007F8000000000
3FF003FF0000000000
3FFFFFFF0000000000
1FFFFFFF0000000000
0FFFFFFE0000000000
07FFFFF80000000000
01FFFFE00000000000
001FFE000000000000
000000000000000000
000000000000000000
00E000380000000000
01F0007C0000000000
01F0007C0000000000
03FC01FE0000000000
03FFFFFE0000000000
01FFFFFC0000000000
01FFFFFC0000000000
00FFFFF80000000000
003FFFE00000000000
0007FF000000000000
ENDCHAR
STARTCHAR uniF0B5
ENCODING 61621
SWIDTH 1136 0
DWIDTH 109 0
BBX 104 103 0 -31
BITMAP
00000000003FFE000000000000
0000000001FFFFE00000000000
000000000FFFFFF80000000000
000000003FFFFFFE0000000000
00000000FFFFFFFF8000000000
00000001FFFFFFFFC000000000
00000003FFFFFFFFE000000000
0000000FFFFFFFFFF000000000
0000001FFFFC1FFFF800000000
0000003FFF8000FFFC00000000
0000007FFE00003FFE00000000
0000007FF800000FFF00000000
000000FFF0000007FF80000000
000001FFE0000003FFC0000000
000001FF80000000FFC0000000
000003FF00000000FFE0000000
000007FF000000007FE0000000
000007FE000000003FF0000000
000007FC000000001FF0000000
00000FFC000000001FF8000000
00000FF8000000000FF8000000
00000FF8000000000FF8000000
00001FF00000000007FC000000
00003FF00000000007FFF80000
0001FFF00000000007FFFF8000
0007FFF00000000003FFFFE000
001FFFE00000000003FFFFF000
003FFFE00000000003FFFFFC00
007FFFE00000000003FFFFFE00
00FFFFE00000000003FFFFFF00
01FFFFE00000000003FFFFFF80
03FFFC000000000000003FFFC0
07FFC00000000000000003FFE0
0FFF800000000000000001FFF0
0FFE0000000000000000007FF8
1FFC0000000000000000003FF8
1FF80000000000000000001FFC
3FF00000000000000000000FFC
3FE000000000000000000007FC
7FE000000000000000000007FE
7FC000000000000000000003FE
7FC000000000000000000003FE
FF8000000000000000000001FF
FF8000000000000000000001FF
FF8000000000000000000001FF
FF8000000000000000000001FF
FF8000000000000000000001FF
FF8000000000000000000000FF
FF8000000000000000000001FF
FF8000000000000000000001FF
FF8000000000000000000001FF
FF8000000000000000000001FF
FF8000000000000000000001FF
7FC000000000000000000003FE
7FC000000000000000000003FE
7FE000000000000000000007FE
3FE000000000000000000007FE
3FF00000000000000000000FFC
3FF80000000000000000001FFC
1FFC0000000000000000003FF8
0FFE0000000000000000007FF8
0FFF800000000000000000FFF0
07FFC00000000000000003FFE0
03FFF8000000000000001FFFC0
01FFFF8010007C000001FFFF80
00FFFF807C00FE007E01FFFF80
007FFF80FE00FF007F01FFFE00
003FFF81FE00FF00FF01FFFC00
001FFF81FE01FF00FF01FFF800
0007FF81FE01FF00FF01FFE000
0001FF80FE01FF00FF01FF8000
00001F80FC01FE007E01FC0000
000000003003FE001800000000
000000000003FE000000000000
000000000001FC000000000000
000000000001FC000000000000
00000003C0007001E000000000
00000007F0000003F000000000
0000000FF0000007F800000000
0000000FF8000007F800000000
0000000FF807C007F800000000
0000000FF00FE007F800000000
0000000FF00FE00FF800000000
0000000FF01FF00FF800000000
0000000FF01FF00FF800000000
0000000FE00FE007F000000000
00000007E00FE003F000000000
000000018007C001C000000000
00000000000000000000000000
00000000000000000000000000
00000000000000000000000000
00000000000800000000000000
00000000003E00000000000000
00000000007F00000000000000
0000000000FF80000000000000
0000000000FF80000000000000
0000000000FF80000000000000
0000000000FF00000000000000
0000000001FF00000000000000
0000000000FF00000000000000
0000000000FF00000000000000
00000000007E00000000000000
00000000003C00000000000000
ENDCHAR
ENDFONT
